<svg version="1.1" id="Layer_1" xmlns="http://www.w3.org/2000/svg" xmlns:xlink="http://www.w3.org/1999/xlink" x="0px" y="0px"
	 width="100%" viewBox="0 0 122 121" enable-background="new 0 0 122 121" xml:space="preserve">
<path fill="none" opacity="1.000000" stroke="none" 
	d="
M71.000000,122.000000 
	C47.333332,122.000000 24.166666,122.000000 1.000000,122.000000 
	C1.000000,81.666664 1.000000,41.333332 1.000000,1.000000 
	C41.666668,1.000000 82.333336,1.000000 123.000000,1.000000 
	C123.000000,41.333332 123.000000,81.666664 123.000000,122.000000 
	C105.833336,122.000000 88.666664,122.000000 71.000000,122.000000 
M36.409996,29.871685 
	C43.133785,24.099850 50.775333,20.607622 58.381340,20.202744 
	C60.379288,22.046331 61.800533,24.051556 62.463448,23.826189 
	C63.878082,23.345253 64.899643,21.708101 66.419228,20.213158 
	C85.212326,21.835030 100.498489,37.217136 101.728279,55.237270 
	C99.937889,57.650967 98.693657,59.328358 97.154915,61.402805 
	C99.631660,61.991219 100.795372,62.267689 103.226700,62.845314 
	C100.052368,70.669426 97.104683,77.934914 93.925781,85.770302 
	C95.289436,86.887962 97.413033,88.628471 99.680183,90.486633 
	C100.489586,89.530464 101.174873,88.815224 101.754250,88.022575 
	C114.234688,70.948090 114.165016,47.611042 101.038696,30.363392 
	C88.133438,13.406210 67.437935,7.050134 47.355965,13.565069 
	C18.460426,22.939280 5.472419,56.491364 20.144579,83.164024 
	C24.007200,90.185921 25.581951,90.501060 31.447342,86.358154 
	C28.189939,78.431206 25.039021,70.763390 21.722296,62.692081 
	C23.752411,62.239014 24.367632,62.077095 24.992199,61.969326 
	C25.603443,61.863850 26.224207,61.813553 28.243938,61.569469 
	C26.399155,59.240314 25.149467,57.662506 23.307247,55.336586 
	C23.661173,46.953346 27.787697,38.357063 36.409996,29.871685 
M67.589943,118.068314 
	C83.838074,119.876823 94.334732,115.378685 100.054787,103.749420 
	C96.849678,101.841629 93.722534,99.636597 90.316895,98.017273 
	C79.923584,93.075432 68.691833,92.243706 57.374367,91.742729 
	C64.623756,89.206596 72.072510,88.927940 79.337257,90.781670 
	C86.341347,92.568893 93.094025,95.341377 100.287704,97.793694 
	C92.707504,86.929176 79.184952,80.436440 66.973343,81.377563 
	C51.468304,82.572502 37.566589,89.126373 22.970776,93.955406 
	C31.436211,103.684433 50.213318,113.934448 67.589943,118.068314 
M64.042580,62.943081 
	C71.725510,54.387016 79.408440,45.830956 87.267471,37.078773 
	C86.465614,36.348202 85.541885,35.506599 84.207062,34.290443 
	C76.966766,41.730377 69.920517,48.970913 62.174164,56.930866 
	C57.258907,51.341412 52.670975,46.124180 47.469921,40.209732 
	C45.715553,41.925957 44.830727,42.791546 44.245338,43.364204 
	C49.948261,50.202763 54.943325,56.292358 60.100109,62.241776 
	C60.701801,62.935955 62.197052,62.855614 64.042580,62.943081 
z"/>
<path fill="#1F334A" opacity="1.000000" stroke="none" 
	d="
M36.136337,30.100924 
	C27.787697,38.357063 23.661173,46.953346 23.307247,55.336586 
	C25.149467,57.662506 26.399155,59.240314 28.243938,61.569469 
	C26.224207,61.813553 25.603443,61.863850 24.992199,61.969326 
	C24.367632,62.077095 23.752411,62.239014 21.722296,62.692081 
	C25.039021,70.763390 28.189939,78.431206 31.447342,86.358154 
	C25.581951,90.501060 24.007200,90.185921 20.144579,83.164024 
	C5.472419,56.491364 18.460426,22.939280 47.355965,13.565069 
	C67.437935,7.050134 88.133438,13.406210 101.038696,30.363392 
	C114.165016,47.611042 114.234688,70.948090 101.754250,88.022575 
	C101.174873,88.815224 100.489586,89.530464 99.680183,90.486633 
	C97.413033,88.628471 95.289436,86.887962 93.925781,85.770302 
	C97.104683,77.934914 100.052368,70.669426 103.226700,62.845314 
	C100.795372,62.267689 99.631660,61.991219 97.154915,61.402805 
	C98.693657,59.328358 99.937889,57.650967 101.728279,55.237270 
	C100.498489,37.217136 85.212326,21.835030 66.419228,20.213158 
	C64.899643,21.708101 63.878082,23.345253 62.463448,23.826189 
	C61.800533,24.051556 60.379288,22.046331 58.381340,20.202744 
	C50.775333,20.607622 43.133785,24.099850 36.136337,30.100924 
z"/>
<path fill="#4046CA" opacity="1.000000" stroke="none" 
	d="
M67.161705,118.036209 
	C50.213318,113.934448 31.436211,103.684433 22.970776,93.955406 
	C37.566589,89.126373 51.468304,82.572502 66.973343,81.377563 
	C79.184952,80.436440 92.707504,86.929176 100.287704,97.793694 
	C93.094025,95.341377 86.341347,92.568893 79.337257,90.781670 
	C72.072510,88.927940 64.623756,89.206596 57.374367,91.742729 
	C68.691833,92.243706 79.923584,93.075432 90.316895,98.017273 
	C93.722534,99.636597 96.849678,101.841629 100.054787,103.749420 
	C94.334732,115.378685 83.838074,119.876823 67.161705,118.036209 
z"/>
<path fill="#4046CA" opacity="1.000000" stroke="none" 
	d="
M63.660316,63.038712 
	C62.197052,62.855614 60.701801,62.935955 60.100109,62.241776 
	C54.943325,56.292358 49.948261,50.202763 44.245338,43.364204 
	C44.830727,42.791546 45.715553,41.925957 47.469921,40.209732 
	C52.670975,46.124180 57.258907,51.341412 62.174164,56.930866 
	C69.920517,48.970913 76.966766,41.730377 84.207062,34.290443 
	C85.541885,35.506599 86.465614,36.348202 87.267471,37.078773 
	C79.408440,45.830956 71.725510,54.387016 63.660316,63.038712 
z"/>
</svg>
